<svg width="70" height="95" viewBox="0 0 70 95" xmlns="http://www.w3.org/2000/svg">
<path d="M53.5981 85.2353V94.6373H56.82V85.4207C56.82 84.8041 57.0647 84.2126 57.5004 83.7761C57.9361 83.3397 58.5271 83.094 59.1438 83.0929H60.6311V80.0234H58.9831C57.5881 80.035 56.251 80.5825 55.2485 81.5527C54.2461 82.5229 53.6552 83.8415 53.5981 85.2353Z"></path>
<path d="M65.5297 89.2319V83.0807H69.0894V80.0071H65.5297V77.123H62.2954V89.405C62.3524 90.8007 62.9435 92.1212 63.9464 93.0935C64.9494 94.0658 66.2876 94.6156 67.6845 94.6292H69.3325V91.5598H67.8451C67.2306 91.5544 66.6429 91.307 66.2095 90.8712C65.7761 90.4355 65.5318 89.8465 65.5297 89.2319Z"></path>
<path d="M29.1658 79.7305C28.3774 79.7333 27.5993 79.9102 26.8871 80.2485C26.1749 80.5868 25.5461 81.0782 25.0458 81.6875C24.5454 81.0782 23.9167 80.5868 23.2045 80.2485C22.4923 79.9102 21.7142 79.7333 20.9257 79.7305C19.5726 79.7295 18.2706 80.247 17.2873 81.1765C16.3041 82.1061 15.7145 83.3771 15.6396 84.7281V94.6369H18.8821V85.1319C18.8728 84.827 18.9246 84.5233 19.0346 84.2388C19.1446 83.9543 19.3105 83.6947 19.5225 83.4754C19.7345 83.2561 19.9884 83.0815 20.269 82.9619C20.5496 82.8424 20.8514 82.7803 21.1564 82.7793C22.207 82.7793 23.4431 83.488 23.4431 85.5109V94.6369H26.6732V85.5027C26.6732 83.6281 27.8515 82.7793 28.9475 82.7793C29.2567 82.7678 29.5649 82.8212 29.8523 82.9361C30.1396 83.0511 30.3996 83.2251 30.6154 83.4468C30.8313 83.6685 30.9983 83.933 31.1056 84.2233C31.2129 84.5135 31.2581 84.8231 31.2382 85.1319V94.6369H34.4601V84.7487C34.3894 83.393 33.8005 82.1162 32.8152 81.1823C31.8299 80.2484 30.5234 79.7286 29.1658 79.7305Z"></path>
<path d="M43.9365 79.7697C42.9483 79.764 41.9689 79.9559 41.0559 80.3342C40.1429 80.7124 39.3147 81.2692 38.62 81.972C37.9253 82.6748 37.378 83.5094 37.0104 84.4266C36.6427 85.3439 36.4621 86.3254 36.4791 87.3135C36.4791 91.7385 39.6433 94.9439 43.9983 94.9439C44.7706 94.9679 45.5394 94.8308 46.2558 94.5414C46.9722 94.252 47.6206 93.8166 48.1595 93.2629V94.639H51.3855V87.3753C51.3855 82.9586 48.2461 79.7697 43.9365 79.7697ZM43.9777 91.8456C43.0872 91.8685 42.2102 91.6256 41.4583 91.1479C40.7065 90.6702 40.1141 89.9794 39.7566 89.1636C39.3991 88.3477 39.2928 87.4439 39.4511 86.5674C39.6095 85.6908 40.0254 84.8813 40.6459 84.2422C41.2663 83.6031 42.063 83.1633 42.9344 82.9789C43.8059 82.7945 44.7125 82.8739 45.5386 83.207C46.3647 83.5401 47.0729 84.1117 47.5727 84.849C48.0725 85.5863 48.3414 86.4557 48.3449 87.3465C48.3449 89.9916 46.5568 91.8456 43.9777 91.8456Z"></path>
<path d="M8.10418 85.895C4.97704 85.5324 4.35079 84.9721 4.35079 84.1192C4.35079 82.7678 6.41083 82.5948 7.29664 82.5948C8.82249 82.606 10.2962 83.1512 11.462 84.1357L13.5221 82.0757C12.6981 81.3959 10.7287 79.752 6.81872 79.752C2.90877 79.752 0.881695 82.0921 0.881695 84.3046C0.881695 86.9209 2.91289 88.4247 7.09476 88.8655C8.84991 89.0551 10.1807 89.3023 10.1807 90.5136C10.1807 92.7714 4.52384 92.5448 2.2578 90.0356L0 92.2893C1.85572 93.987 4.2748 94.9368 6.78988 94.955C11.4991 94.955 13.6416 92.6478 13.6416 90.4889C13.658 87.7984 11.8946 86.3317 8.10418 85.895Z"></path>
<path d="M49.8735 60.2346C59.8152 54.0545 70 36.4618 70 32.5024C70 28.543 59.8152 10.9627 49.8735 4.77019C49.7725 4.6963 49.6533 4.65118 49.5286 4.63966C49.404 4.62813 49.2786 4.65062 49.1657 4.70474C49.0528 4.75885 48.9567 4.84256 48.8876 4.94695C48.8186 5.05134 48.7791 5.17251 48.7734 5.29756V32.49V59.6825C48.7747 59.8096 48.811 59.934 48.8784 60.0419C48.9457 60.1497 49.0414 60.237 49.1551 60.294C49.2687 60.3511 49.3959 60.3757 49.5226 60.3652C49.6494 60.3547 49.7708 60.3095 49.8735 60.2346Z"></path>
<path d="M31.6794 64.9777C31.9555 64.9777 32.2356 64.9777 32.5034 64.9777C36.5309 64.9905 40.5245 64.2426 44.2745 62.7734C44.4943 62.6931 44.6837 62.5466 44.8166 62.3539C44.9495 62.1613 45.0192 61.9321 45.0161 61.6981V45.4897C45.0142 45.3948 44.9901 45.3017 44.9458 45.2177C44.9016 45.1337 44.8383 45.0612 44.7611 45.006C44.6839 44.9508 44.5948 44.9144 44.501 44.8996C44.4073 44.8849 44.3113 44.8923 44.2209 44.9212C40.7188 46.3467 37.7689 47.7063 32.6847 47.7063C28.6526 47.7063 24.7856 46.1046 21.9345 43.2534C19.0834 40.4023 17.4816 36.5354 17.4816 32.5033C17.4816 28.4712 19.0834 24.6042 21.9345 21.7531C24.7856 18.9019 28.6526 17.3002 32.6847 17.3002C37.7689 17.3002 40.7188 18.6598 44.2209 20.0812C44.311 20.111 44.4069 20.1191 44.5007 20.1049C44.5945 20.0908 44.6837 20.0548 44.7611 19.9999C44.8385 19.945 44.9019 19.8727 44.9461 19.7887C44.9904 19.7048 45.0144 19.6117 45.0161 19.5168V3.29608C45.0183 3.06278 44.9482 2.83451 44.8154 2.64269C44.6826 2.45086 44.4936 2.30489 44.2745 2.22486C40.5298 0.750138 36.5404 -0.0046825 32.5158 2.18546e-05C32.2356 2.18546e-05 31.9555 2.18546e-05 31.6918 2.18546e-05C23.2357 0.21708 15.1991 3.72916 9.29561 9.78731C3.39217 15.8455 0.0891101 23.9703 0.090821 32.4291V32.5486C0.0900739 41.005 3.39177 49.1274 9.29236 55.185C15.1929 61.2426 23.2259 64.7564 31.6794 64.9777Z"></path>
</svg>